<?xml version="1.0" encoding="utf-8"?>
<!-- Generator: Adobe Illustrator 15.1.0, SVG Export Plug-In . SVG Version: 6.00 Build 0)  -->
<!DOCTYPE svg PUBLIC "-//W3C//DTD SVG 1.1//EN" "http://www.w3.org/Graphics/SVG/1.1/DTD/svg11.dtd">
<svg version="1.1" id="Layer_1" xmlns="http://www.w3.org/2000/svg" xmlns:xlink="http://www.w3.org/1999/xlink" x="0px" y="0px"
	 width="491.589px" height="264.459px" viewBox="0 0 491.589 264.459" enable-background="new 0 0 491.589 264.459"
	 xml:space="preserve">
<g>
	<g>
		<path fill="#E0BFAA" d="M65.001,254.563c-0.639-5.309,0.557-29.057,1.292-38.027c0.948-11.569,4.979-46.973,4.979-46.973
			s-37.384-7.158-40.646-15.325c-3.493-8.747,0-37.675,0-37.675s-5.441-15.457-6.13-21.75c-0.427-3.896-2.26-0.5,0.63-3.147
			c3.322-3.043,5.271-0.853,5.271-0.853l8.229,12.75l14.5,29.375c0,0,10.892-16.743,14.833-18.708c4.746-2.365,24.667-2,24.667-2
			s-10.426-4.429-13.218-7.908C74.936,98.749,67.517,86.852,67.1,80.063c-0.511-8.315,3.378-29.177,7.027-36.667
			c3.167-6.5,8.703-10.905,13.25-13.833c5.811-3.742,20.75-11.433,27.25-10.003c7.477,1.644,19.63,14.754,24.5,23.837
			c5.4,10.072,5.388,17.417,4.25,33.417c-0.683,9.597-7.595,21.265-17.262,28.932c-4.012,3.182-13.488,7.374-13.488,7.374
			s33.116,5.672,39.03,13.646c4.834,6.519,12.754,28.869,15.444,39.006c2.859,10.778,6.76,32.84,7.526,43.964
			c0.667,9.685-2.029,28.823-4,38.328c-1.348,6.5-2.466,11.679-5.609,15.567c-2.671,3.306-10.992-22.472-13.998-25.478
			c-5.126-5.127,4.273-11.12,4.273-11.12l-16-61.262c0,0,0.292,66.594,0.333,88.792"/>
		<g>
			<path fill="#B56E19" d="M63.793,54.729c-3.667-2.667-6.833-2.833-6-7.833c0.167-0.833,0.5-0.833,0.333-2c0-0.833-1-2-1.167-3
				c-0.167-1.5-1.167-6.333,0.833-5.833c0.5-1.5,1-7.167,2.833-6.833c0.667-1.167,1-8.5,1.667-9.5
				c0.333,0.167,0.833,6.333,1.167,6.5c1.333-2,2.5-8.5,4-10c1-1.167,2.333-5,3.833-2.5c2.667-2.167,5-4,7.667-6.167
				c0.167,0.333,0.5,0.5,0.667,0.833c3.167-2.667,6.167-2.5,9.833-3.333c3.333-1,5.667-3,9.333-2.833
				c3.333,0.167,6.333-2,9.833-2.167c2.333-0.333,4.917,0.75,7.25,1.25c2.167,0.5,2.083,0.574,4.25,0.907
				c2,0.333,4.75,0.509,6.75,1.343c1.167,0.5,5.083,3,5.083,4.333c1,0,2,1.5,2.833,2.167c-0.167,0.167,0.75-1.917,0.583-1.75
				c1,0.667,5.25,1.25,4.75,2.75c5.167,3,7.5,5,9,10.5c0.333,0.833,0.167,2.167,0.5,3c0.5,1,1.5,1.333,2,2.5
				c0.5,1.167,0,1.833,0.667,3c0.833,1.167,2.167,0.5,2.333,2.333c0,1,2.917,6,2.75,7.167c-0.333,1-1.263,10.361-1.43,11.361
				c0,1.333-2.654,4.723-2.82,5.889c-0.167,1.5-2.25,1.397-2.25,2.73c0.167,1.667,0.333-1.5,0,0c-0.333,1-2.75,0.187-2.917,1.187
				c-0.333,1.167-1.167,1.333-1.667,2.333c-0.5,1.167-0.167,2.167-0.333,3.333c-0.5,2.5-1.667,5-2.333,7.5
				c-0.5,2,0.5,5.667-2.333,5.833c2-14.667,1.667-30.5-10.667-40.667c-14.5-11.833-37.5-10.25-50.5,4c-2.914,3.194-3,9.5-6.5,12.333
				c-3,2.5-6.833,0.667-10-0.833"/>
		</g>
		<path fill="#E5D78F" d="M62.96,118.063c4.791-3.691,22.917-7.75,22.917-7.75s3.624,13.833,13.957,14.5
			s11.793-11.028,12.793-11.695s28.97,3.243,38.5,12.445c6.313,6.096,15.432,32.351,18.152,49.601l-26.47,7.274l-3.506-14.629
			l0.324,86.754H65.001c-1.375-33,6.271-85,6.271-85c-6.479-0.666-21.366-5.272-21.366-5.272l3.221-31.353
			C53.126,132.938,59.428,120.783,62.96,118.063z"/>
		<g>
			<path fill="#FFFFFF" d="M65.751,67.875c0,0,1.575,0.178,3.125-0.5s22.425,10.882,24.813,14.938
				c4.563,7.75,1.938,21.75-4.063,34.313c0,0,3.75-26.188-3.188-35C84.657,79.361,65.751,67.875,65.751,67.875z"/>
			<g>
				<path fill="#D4145A" d="M87.126,123.563c3.5-14,8.5-31-2.5-42.5c-12-12-36-19-51.5-24c-17-6-27.5,2.5-31.5,20
					c-4.5,21,16,27.5,32,34.5c12.5,6,45.185,31.266,53.685,11.265"/>
				<g>
					<path fill="#D4145A" d="M88.082,123.402c2.771-11.024,6.245-22.81,2.716-34.064c-3.383-10.791-15.419-16.792-24.918-21.175
						c-10.291-4.749-21.196-8.029-31.964-11.492c-7.412-2.383-14.858-2.864-21.731,1.244c-7.68,4.59-11.315,15.017-12.1,23.418
						c-0.902,9.666,5.499,16.696,13.162,21.448c7.714,4.784,16.562,7.286,24.414,11.796c7.747,4.449,15.296,9.209,23.519,12.76
						c9.228,3.985,21.982,6.402,27.086-4.67c0.169-0.367-1.673-0.193-1.91,0.321c-8.484,18.404-38.374-4.376-49.163-10.379
						C21.543,103.9-2.766,99,2.92,75.502c3.045-12.584,11.481-22.145,25.41-19.224c10.695,2.242,21.68,6.697,31.759,10.836
						c10.634,4.367,23.349,10.361,28.287,21.44c4.87,10.929,0.536,24.26-2.205,35.168C86.051,124.204,87.953,123.915,88.082,123.402
						L88.082,123.402z"/>
				</g>
			</g>
			<g>
				<path fill="#FFFFFF" d="M70.255,85.132c-9.922,1.923-16.272,26.679-1.783,27.124C80.419,113.354,87.558,81.938,70.255,85.132"/>
			</g>
			<g>
				<path fill="#FFFFFF" d="M20.62,64.223C9.121,63.379,1.089,88.186,18.999,85.079C36.488,81.194,23.725,60.387,20.62,64.223"/>
			</g>
			<g>
				<path fill="#FFFFFF" d="M39.126,80.563c4.5,1.5,9.5,3.5,13,6c-2,3.5-3.5,7.5-5.5,11.5c-5.5-8.5-20-6-8.5-18"/>
			</g>
			<g>
				<g>
					<path fill="#D4145A" d="M42.54,56.757c0.508-1.73,1.035-3.407,1.867-5.015c0.801-0.837,0.63-1.006-0.512-0.507
						c0.655,0.005,1.473,0.559,2.039,0.835c2.951,1.442,5.762,3.086,8.792,4.377c5.183,2.208,15.105,2.138,10.175,9.943
						c-1.57,2.486,4.311,2.155,5.455,0.344c6.996-11.074-8.42-11.815-15.401-15.315c-3.274-1.641-6.804-4.42-10.691-3.748
						c-4.88,0.843-6.317,5.507-7.548,9.696C36.021,59.725,41.899,58.938,42.54,56.757L42.54,56.757z"/>
				</g>
			</g>
			<g>
				<g>
					<path fill="#D4145A" d="M67.732,67.219c9.016,4.293,21.075,7.326,25.889,16.965c2.978,5.962,1.386,13.58,0.139,19.729
						c-1.378,6.797-3.87,13.408-7.413,19.367c-0.281,0.472,3.239,0.276,3.81-0.684c3.879-6.524,6.254-13.652,7.758-21.067
						c1.232-6.075,2.018-12.522-0.43-18.38c-4.103-9.818-17.438-13.112-26.111-17.242C70.351,65.419,67.305,67.015,67.732,67.219
						L67.732,67.219z"/>
				</g>
			</g>
			<g>
				<g>
					<path fill="#D4145A" d="M39.13,52.186c-11.712-5.189-21.807-1.369-30.107,7.857c-1.618,1.798,2.104,2.264,3.207,1.039
						c7.106-7.898,14.732-10.784,24.643-6.393C38.402,55.367,41.357,53.172,39.13,52.186L39.13,52.186z"/>
				</g>
			</g>
			<g>
				<g>
					<path fill="#D4145A" d="M39.871,54.664c8.743,4.042,17.684,7.769,26.808,10.866c0.724,0.246,2.275-0.802,1.146-1.186
						c-9.001-3.055-17.817-6.724-26.442-10.712C40.715,53.324,38.978,54.251,39.871,54.664L39.871,54.664z"/>
				</g>
			</g>
		</g>
		<path fill="#E0BFAA" d="M28.024,145.563c0-13.899-17.544-37.949-14.064-47.5c1.355-3.72,8.57-5.288,10.183-12.128
			c1.616-6.854,10.985,4.74,13.873,9.832c2.887,5.091,8.258,17.835,9.981,25.342c1.724,7.506,3.937,16.155,1.909,20.455
			s-16.097,16.029-16.097,16.029S28.024,155.896,28.024,145.563z"/>
	</g>
	<g>
		<path fill="#F4D1BD" d="M205.636,254.563c0.361-8.993-6.058-46.826-6.058-46.826l-2.536-32.508c0,0-12.771,10.321-14.752,16.834
			c-1.735,5.701,3.336,25.207,4.703,27.598c6.531,11.429,1.702,22.547-0.533,23.277c-8.157,2.667-17.181-7.063-19.333-8.125
			c-1.499-0.74,1.084-8.904,3.25-14.854c1.879-5.162-7.315-24.615-6.125-29.496c1.5-6.152,10.297-22.006,11.25-25.15
			c1.025-3.383,4.7-10.289,6.18-13.416c1.938-4.098,6.11-11.574,8.572-15.168c2.82-4.114,7.737-11.833,13.707-14.499
			c4.842-2.163,26.417-3.008,26.417-3.008s-9.053-5.367-12.75-9.659c-2.714-3.15-11.392-20-11.809-26.79
			c-0.511-8.315-1.839-24.055,1.809-31.544c3.167-6.5,9.953-14.833,16.889-18.94c8.667-5.133,15.111-6.813,26.445-6.726
			c9.744,0.075,24.332,7,33.332,18c7.071,8.642,6.771,31.572,4.334,42.469c-2.1,9.389-7.064,18.586-16.732,26.253
			c-4.012,3.182-15.535,8.721-15.535,8.721s25.383,5.785,31.297,13.759c4.835,6.52,12.755,28.869,15.444,39.007
			c2.859,10.778,2.593,31.641,3.36,42.765c0.666,9.685-0.268,19.365,0.666,29.027c0.48,4.977,4.809,14.471,1.666,18.359
			c-2.671,3.306-10.41-9.604-13.416-12.609c-5.127-5.127-10.335-7.972-7.75-15.5c1.248-3.634,1.654-2.279,1.5-10.25
			c-0.375-19.375-5.76-32.741-6.489-34.958c-3.261-9.917-7.344-16.834-7.344-16.834s0.147,58.594,0.188,80.792"/>
		<g>
			<path fill="#C69C6D" d="M199.546,59.819c-1.33-1.033-3.04-1.652-4.18-3.098c1.52-0.619,4.56-1.033,5.13-2.891
				c0.57-1.652-1.9-4.957-2.66-6.402c-3.04-4.75-5.89-11.358-11.21-6.608c0.38-3.511,5.13-4.75,7.599-5.989
				c-1.899-0.827-6.459-1.239-4.939-4.543c1.14-2.271,5.319-2.065,7.22-2.271c-0.95-2.478-1.14-4.337-3.42-5.989
				c1.331-0.619,3.23-0.826,4.75-0.826c-0.38,0.207-0.761,0.207-1.14,0.207c0.379-0.826,0.949-1.859,1.709-2.479
				c-3.04-1.445-0.95-3.304,0.95-3.304c1.52,0,2.09,1.239,3.609,0.62c0.76-0.414,1.14-2.066,2.09-2.478c1.52-0.62,3.23,0.826,4.37,0
				c1.9-1.446,0.19-4.131-1.52-4.544c1.52-1.239,4.56-1.239,6.46-1.239c2.47,0,5.7,2.065,7.599,1.859
				c3.23-0.207,5.7-6.608,9.88-2.685c-0.76-4.337,3.229-1.033,4.75-0.826c2.659,0.206,4.56-1.239,7.22,0.413
				c3.04,1.858,8.17,7.848,8.55,11.771c-0.949-5.576,9.31-5.988,12.729-6.608c-0.19,0.62-0.38,1.652-0.57,2.065
				c2.09-0.206,3.61-0.413,5.7-0.206c2.09,0.206,4.18,0.206,6.27,0.206c2.28,0.206,2.09,0.826,3.229,1.445
				c1.9,1.033,4.37,3.305,6.271,4.13c1.52,0.62,8.549,0,5.32,3.717c1.329,0.826,4.939,1.239,5.699,2.892
				c0.38,0.826-1.14,1.239-0.95,1.858c0.19,0.62,0.761,1.032,0.761,1.652c0.379,1.858,2.09,2.478,2.47,3.717
				c0.38,1.033,0.189,2.685,0.569,3.511c1.521,2.892,4.939,4.13,6.08,7.435c0.381,1.239-0.38,2.272-0.19,3.304
				c0.571,3.511,2.661,6.609,3.04,10.12c-2.85-0.826-2.279,3.924-3.609,5.369c-0.189-0.207-0.57-0.207-0.95-0.413
				c-1.14,1.239-1.71,2.891-2.28,4.543c-0.189-0.206-0.379-0.413-0.569-0.413c-1.521,4.75-1.9,10.739-6.079,5.163
				c-0.57,1.239-0.951,2.685-1.521,3.717c-0.189-0.207-0.57-0.413-0.76-0.62c-0.76,1.652-1.33,3.924-3.42,2.479
				c-1.52,2.684-3.799,4.956-4.18,8.26c-0.189,3.304,0.381,7.229,0.57,10.532c0.189,9.293,1.52,17.967,2.85,27.054
				c0.57,4.337,0.951,8.466,0.76,12.803c-2.09-3.51-3.799-7.434-5.699-10.944c-0.76,1.652-0.381,3.924-0.381,5.782
				c-1.33-1.652-3.229-5.37-4.369-1.445c-0.189-0.413-1.141-1.033-1.52-1.652c-0.761,0.62-1.521,1.445-2.09,2.478
				c-0.381,0-0.381-0.413-0.57-0.62c-0.189,0.414-0.57,1.033-0.57,1.652c-0.189-0.207-0.189-0.619-0.38-0.826
				c-1.52,3.305-2.28,0.207-3.8-0.826c-0.76,2.272-2.279,2.065-3.42,0c-0.19,0.414-0.949,0.62-1.141,1.033
				c-2.722-2.049-4.623-11.955-4.623-11.955s4.567-2.729,7.132-4.154c2.94-1.634,8.454-5.023,12.02-10.995
				c4.852-8.126,5.042-17.091,5.421-26.59c0.381-10.738,2.09-18.586-3.989-28.292c-5.89-9.293-14.249-10.119-23.179-13.63
				c-8.74-3.717-16.72,2.685-25.27-0.206c-0.95-0.207-1.709-0.826-2.66-1.239c-1.14,0.826-2.66,1.652-3.8,2.685
				c-0.949,0.826-1.709,3.511-2.85,3.924c-2.47,0.62-1.33-1.652-3.04-2.065c-1.71-0.206-1.615,3.408-3.135,4.234
				c-2.66,1.445-3.705-2.479-4.655,2.478c-0.19,1.446-0.95,5.671-1.33,7.117c-0.57,1.858-2.945,13.534-4.085,14.979
				c-1.206,1.834-1.038,0.177-2.185-2.018c-0.66-1.264-2.266-2.708-3.515-3.764"/>
		</g>
		<path fill="#98B1B7" d="M201.977,123.322c9.993-5.487,27.396-4.01,27.396-4.01s-0.874,13.833,9.46,14.5
			c10.334,0.667,17.525-12.141,18.525-12.808s23.238,4.356,32.768,13.558c6.313,6.096,12.78,33.037,15.5,50.287l-25.959,6.498
			l-3.541-14.785l-0.645,78h-69.846c-5.151-31.334-8.594-79.334-8.594-79.334l-5.021,6.209l-17.291-14.227
			C177.38,155.188,195.658,126.792,201.977,123.322z"/>
		<g>
			<g>
				<g>
					<path fill="#D4145A" d="M171.711,221.175c-6.325,21.558,2.847,18.416,24.676,20.935c9.265,1.068,8.498-5.385,9.265-12.828
						c0.891-8.641-3.741-8.609-11.225-9.322c-8.196-1.069-21.736-4.574-22.538,0"/>
				</g>
				<g>
					<path fill="#D4145A" d="M177.412,218.77c-0.178-2.049,0.356-3.297,2.405-2.939c1.604,0.355,2.94,0.355,2.316,2.315"/>
				</g>
				<g>
					<path fill="#D4145A" d="M184.272,218.502c0.089-2.316,0.089-2.138,2.316-1.692c1.693,0.356,2.138,0.089,2.049,1.96"/>
				</g>
				<g>
					<path fill="#D4145A" d="M191.131,219.037c-0.178-2.049,0.802-1.693,2.405-1.426c1.514,0.268,2.405,0.268,2.227,2.049"/>
				</g>
				<g>
					<path fill="#D4145A" d="M197.991,220.195c0.089-1.604,0.356-1.693,1.871-1.158c0.98,0.355,2.049,0.801,3.118,0.979
						c0,0.356,0,0.891-0.178,1.158"/>
				</g>
				<g>
					<path fill="#D4145A" d="M174.562,230.35c-0.089-1.514-0.534-4.098,0.802-5.344c1.336-1.248,3.92-0.446,5.434-0.179
						c2.762,0.445,5.434,0.891,8.285,0.979c2.138,0,4.454-0.355,6.592,0.179c2.851,0.624,5.523,4.988,2.672,7.305
						c-1.693,1.337-4.543,0.891-6.503,0.713c-3.118-0.356-6.236-0.892-9.354-1.158c-4.187-0.356-8.107,0.179-8.018-4.989"/>
					<g>
						<path fill="#FFFFFF" d="M175.527,230.091c-0.206-2.647,0.006-5.634,3.65-4.981c1.979,0.354,3.956,0.67,5.951,0.928
							c4.521,0.586,10.958-1.297,13.25,3.718c2.729,5.971-12.829,2.852-15.286,2.604c-3.73-0.377-7.389-0.097-7.654-4.763
							c-0.031-0.544-1.97-0.165-1.932,0.518c0.126,2.22,0.8,4.138,3.189,4.663c4.108,0.904,8.5,0.914,12.675,1.479
							c2.522,0.341,12.313,1.57,11.149-4.011c-0.442-2.122-1.902-4.383-4.244-4.746c-4.916-0.764-9.908-0.361-14.877-1.158
							c-5.548-0.89-8.287,0.049-7.804,6.267C173.639,231.161,175.58,230.769,175.527,230.091L175.527,230.091z"/>
					</g>
				</g>
				<g>
					<path fill="#D4145A" d="M180.797,227.143c-2.672-0.712-3.474,2.228-0.891,2.762c2.94,0.713,1.782-3.741-0.267-2.583"/>
					<g>
						<path fill="#FFFFFF" d="M181.397,226.65c-1.341-0.328-3.937,0.069-4.029,1.863c-0.088,1.718,2.283,2.174,3.562,1.876
							c1.253-0.292,2.073-1.327,1.558-2.592c-0.585-1.438-2.26-1.349-3.437-0.724c-0.244,0.13-0.603,0.518-0.187,0.691
							c0.426,0.178,0.98,0.006,1.363-0.197c-0.078,0.041-0.162,0.049-0.247,0.065c-0.234,0.046,0.104,0.027-0.087,0.001
							c0.054,0.008,0.112,0.03,0.208,0.099c0.228,0.163,0.379,0.396,0.483,0.651c0.102,0.25,0.151,0.533,0.115,0.801
							c-0.013,0.095-0.067,0.272-0.089,0.311c-0.007,0.013-0.139,0.173-0.041,0.076c-0.108,0.106,0.139-0.055,0.207-0.075
							c0.259-0.078,0.032-0.025-0.15-0.059c-0.241-0.044-0.463-0.127-0.682-0.237c-0.328-0.165-0.546-0.481-0.625-0.831
							c-0.055-0.244,0.018-0.593,0.185-0.761c0.146-0.147,0.168-0.094-0.023-0.057c0.231-0.045,0.485,0.025,0.717,0.082
							c0.432,0.105,1.032-0.092,1.366-0.366C181.89,227.001,181.769,226.741,181.397,226.65L181.397,226.65z"/>
					</g>
				</g>
				<g>
					<path fill="#D4145A" d="M193.625,228.836c-1.069-0.535-2.405-1.069-3.118,0c-0.535,0.891-0.178,1.692,0.624,2.138
						c2.494,1.604,3.652-2.228,1.604-2.138"/>
					<g>
						<path fill="#FFFFFF" d="M194.388,228.345c-1.582-0.781-3.571-1.182-4.786,0.447c-1.138,1.526,0.722,3.05,2.162,3.153
							c1.257,0.092,2.507-0.57,2.922-1.789c0.38-1.117-0.518-1.92-1.586-1.909c-0.447,0.005-1.015,0.133-1.271,0.545
							c-0.239,0.384,0.201,0.636,0.541,0.633c0.262-0.003,0.466,0.193,0.444,0.61c-0.011,0.216-0.082,0.408-0.191,0.591
							c-0.049,0.081-0.094,0.125-0.174,0.199c0.014-0.013-0.12,0.021,0.061-0.032c0.094-0.027,0.163,0.006-0.029-0.034
							c-0.163-0.034-0.307-0.115-0.452-0.194c-0.415-0.225-0.702-0.508-0.797-0.979c-0.048-0.24,0.073-0.504,0.182-0.706
							c0.14-0.125,0.133-0.149-0.021-0.075c-0.112,0.003-0.08,0.006,0.096,0.01c0.47,0.023,0.963,0.31,1.375,0.513
							c0.422,0.208,0.994,0.081,1.373-0.164C194.505,228.989,194.811,228.554,194.388,228.345L194.388,228.345z"/>
					</g>
				</g>
			</g>
			<g>
				<g>
					<path fill="#D4145A" d="M205.327,101.821c-0.395,20.591,10.102,39.254,11.022,59.712c0.456,10.134-1.731,19.912-5.003,29.432
						c-3.522,10.253-8.862,19.734-8.686,30.856c0.007,0.44,1.942,0.114,1.932-0.518c-0.183-11.506,5.554-21.57,9.201-32.184
						c2.942-8.563,4.541-17.335,4.528-26.391c-0.029-21.135-11.469-40.238-11.063-61.426
						C207.267,100.881,205.339,101.182,205.327,101.821L205.327,101.821z"/>
				</g>
			</g>
			<g>
				<g>
					<path fill="#D4145A" d="M289.661,101.821c0.655,16.956-10.313,30.819-23.203,40.593
						c-14.802,11.223-33.033,13.994-49.413,21.929c-1.163,0.563,0.607,0.709,1.163,0.439c9.596-4.648,19.957-7.26,29.868-11.109
						c7.566-2.939,14.615-7.043,21.074-11.94c12.704-9.633,23.081-23.889,22.442-40.429
						C291.573,100.801,289.635,101.159,289.661,101.821L289.661,101.821z"/>
				</g>
			</g>
			<path fill="#D4145A" d="M215.626,62.508v34.714l-0.87,2.893l-1.37,1.669l-8.972,0.779l-2.014-1.447l-3.346-2.447l-1.338-2.003
				l-2.942-0.779l-4.811-5.786l-1.337-16.689l2.272-2.448l-0.536-11.126l7.218-4.228l-2.271-2.114l-0.016-2.767l1.084-2.091
				l3.342-1.076h2.139l4.945-7.213c0,0,10.894-22.384,41.768-22.384c24.259,0,37.358,10.077,41.769,21.202l5.711,7.721
				c0,0,4.766,1.682,5.576,3.048c0.411,0.694,0,3.227,0,3.227l-3.045,2.337l6.045,4.116V70.52l3,2.67v16.021l-2.094,3.338
				l-2.72,2.67l-3.229,1.112l-1.414,2.671l-2.11,2.114l-1.991,0.668l-1.057,0.779h-8.554l-1.337-2.448l-0.18-1.446l-0.314-0.779
				V63.176l0.112-1.389l0.917-2.225h0.802l8.021-0.085l0.533,1.07l3.074,0.368l2.94,3.578l0.401,1.121l2.541-0.105l0.132-3.225
				l-3.675-3.171l-4.076-3.503l-1.062-1.001l-0.661-1.669v-2.447l0.595-1.336l-0.84-1.558c0,0-17.395-19.359-42.454-18.692
				c-21.482,0.572-28.445,3.784-44.484,18.804l1.416,4.228l-1.965,3.449L202.342,56l-6.758,5.285l-0.271,4.339l2.269,0.779
				l2.539-3.228l1.606-2.225l2.939-0.333l1.068-1.335l6.95,0.334l1.405,1.001L215.626,62.508z"/>
		</g>
	</g>
	<g>
		<g>
			<path fill="#C9977B" d="M332.08,176.4c0,0-3.651,54.818-7.151,78.162h86.222l0.477-5c1.135-8.928,0.322-18.826,0.5-28
				c0.138-7.125-0.416-28.385-0.416-28.385s20.939-11.973,25.25-14.615c10.332-6.334,32.332-42.334,32.332-42.334
				s16.906-25.475,21.334-30c2.609-2.667-0.541-29.333-4-25.333c-1.291,1.494,1.039,2.675-0.666,9
				c-2.635,9.768-18.855-1.622-15.334,8.167c1.516,4.212-6.334,22.646-23.333,37.5c-5.285,4.618-20.667,19-20.667,19
				s-10.979-23.368-14.92-25.333c-4.746-2.365-27.414-2-27.414-2s11.875-7.739,14.668-11.218c4.472-5.572,12.662-21.66,13.08-28.449
				c0.51-8.315-0.352-21.845-4-29.334c-3.167-6.5-9.953-14.833-16.89-18.94c-8.667-5.133-15.11-6.813-26.444-6.726
				c-9.745,0.075-24.333,7-33.333,18c-7.071,8.642-11.603,31.769-9.164,42.666c2.101,9.389,9.134,20.273,19.583,26.834
				c7.168,4.5,15.035,7.301,15.035,7.301s-26.787,6.225-32.701,14.199c-4.834,6.519,15.373,55.25,19.5,60
				c7.313,8.418,34.752,5.416,44.5,0c18-10,23.25-35.25,23.25-35.25"/>
			<g>
				<g>
					<path fill="#D4145A" d="M485.944,67.117c0,0,0.229,6.75,1.445,19.837c0.739,10.402,2.544,20.765,2.696,30.993
						c-6.031-1.563-13.23-11.439-14.938-13.296c-0.715-0.776-1.336-5.762-1.699-8.039c-1.15-11.16-1.734-32.641-0.924-40.867
						c0.152-1.548,11.592,9.5,12.973,11"/>
				</g>
				<g>
					<path fill="#2E3192" d="M479.467,105.453c-2.204,0.689,0.17,4.092,1.608,3.348c1.352-0.597,0.038-3.769-1.696-3.2"/>
					<g>
						<path fill="#FFFFFF" d="M479.125,105.203c-1.212,0.429-1.867,1.319-1.275,2.557c0.528,1.105,1.65,1.759,2.866,1.501
							c1.38-0.292,2.231-1.153,1.711-2.58c-0.504-1.379-1.803-1.782-3.137-1.412c-0.181,0.05-0.963,0.271-0.877,0.589
							c0.085,0.317,0.874,0.122,1.055,0.072c-0.338,0.094-0.154,0.001,0.061,0.106c0.146,0.071,0.273,0.179,0.394,0.286
							c0.266,0.236,0.438,0.553,0.573,0.875c0.124,0.299,0.177,0.624,0.17,0.946c-0.003,0.143-0.059,0.282-0.115,0.41
							c-0.021,0.053-0.054,0.097-0.099,0.133c0.164-0.178,0.489-0.238,0.727-0.198c-0.616-0.105-1.122-0.733-1.396-1.248
							c-0.188-0.354-0.462-1.366,0.027-1.539c0.112-0.04,0.866-0.367,0.566-0.587C480.061,104.886,479.441,105.091,479.125,105.203
							L479.125,105.203z"/>
					</g>
				</g>
				<g>
					<path fill="#D4145A" d="M475.396,100.197c-0.386-1.99-1.605-12.642-1.77-20.301c-0.121-5.678-0.549-17.823-0.32-22.488
						c2.664,2.028,6.104,6.567,8.878,8.437c2.657,1.833,2.312,4.821,2.6,9.759c0.217,3.734,0.86,8.292,1.135,12.15
						c0.415,5.851,0.571,10.024,1.144,15.668c0.367,3.621,1.031,7.391,1.641,11.033c-2.207-2.117-4.533-4.598-7.059-7.439
						c-1.051-1.216-2.637-2.575-3.945-3.996c-1.095-1.188-1.605-1.719-2.349-2.905"/>
					<g>
						<path fill="#FFFFFF" d="M475.879,100.068c-1.478-8.487-1.677-17.194-1.906-25.783c-0.116-4.368-0.228-8.736-0.244-13.105
							c-0.002-0.702,0.003-1.404,0.015-2.105c0.023-2.105,1.364,0.584,1.988,1.217c1.702,1.723,3.314,3.507,5.131,5.112
							c4.115,3.635,3.25,8.594,3.71,13.697c0.576,6.395,1.096,12.774,1.548,19.18c0.211,2.988,0.514,5.963,0.911,8.931
							c0.179,1.235,0.369,2.468,0.573,3.698c0.334,2.085,1.042,2.869-0.709,1.097c-3.72-3.764-8.109-7.73-11.104-12.102
							c-0.239-0.35-1.163,0.015-0.885,0.42c3.561,5.199,8.854,9.943,13.352,14.34c0.262,0.255,1.002,0.111,0.927-0.339
							c-2.07-12.315-2.683-24.777-3.803-37.204c-0.317-3.524,0.358-7.86-1.977-10.832c-1.252-1.593-3.312-2.8-4.747-4.274
							c-1.628-1.673-3.184-3.384-4.979-4.88c-0.227-0.189-0.85-0.018-0.862,0.313c-0.541,14.007-0.312,29.046,2.095,42.879
							C474.989,100.761,475.957,100.516,475.879,100.068L475.879,100.068z"/>
					</g>
				</g>
			</g>
			<path fill="#F9A58F" d="M328.543,137.563c12.417-7.083,28.284-10.199,28.284-10.199s4.715,12.408,15.049,13.074
				s11.416-12.542,12.416-13.208s23.925-2.57,29.418,2.917c6.209,6.203,9.326,10.173,12.916,23.292l-1.375,34l-13.541,5.74
				c0,0,2.082,40.051-0.561,61.385h-86.222c4.282-33.334,7.151-78.162,7.151-78.162s-2.869-7.826-3.758-10.431
				c-0.708-2.075-2.572-8.296-2.572-8.296C323.226,147.359,319.771,142.566,328.543,137.563z"/>
		</g>
		<path fill="#C9977B" d="M420.009,124.546l10.279-20.874c0,0,5.594-8.208,10.338-7.61s-8,7.5-3.119,13.941
			c1.614,2.131-0.672,5.686,0.119,8.809s0.5,11.5-0.75,14.75c-1.384,3.599-9.406,11.719-12.75,14.4s-30.416,36.889-34.006,39.474
			c-3.994,2.876-8.494,7.126-21.994,5.001c0,0,0.006-14.252,2.25-17.875c4.756-7.678,22.964-16.271,28.75-22.5
			C405.003,145.734,420.009,124.546,420.009,124.546z"/>
		<g>
			<path fill="#603813" d="M337.859,57.861c9.605,4.44,20.309,8.857,31.02,9.729c7.753,0.632,15.509-0.545,22.854-1.348
				c4.432-0.547,12.775-5.359,17.207-5.906c4.771,15.559,3.494,28.505-2.645,43.397c6.754-13.788,8.293-27.284,5.027-41.225
				c-3.964-16.402-13.992-28.977-27.752-34.444c-14.926-5.741-32.65-3.007-45.711,7.928c-11.427,9.568-14.932,24.923-16.324,41.278
				c-0.407,4.777,0.095,13.329,0.652,15.958c1.51,7.125,5.129,12.591,5.596,14.231c-0.467-1.64-0.922-7.181-1.117-9.688
				c-0.662-8.478-0.7-17.222,1.165-25.696c1.633-7.38,5.598-10.114,10.728-13.941"/>
		</g>
	</g>
	<path fill="#E0BFAA" d="M39.626,160.639"/>
	<path fill="#E0BFAA" d="M52.96,133.063"/>
</g>
</svg>
