<?xml version="1.0" encoding="utf-8"?>
<!-- Generator: Adobe Illustrator 15.1.0, SVG Export Plug-In . SVG Version: 6.00 Build 0)  -->
<!DOCTYPE svg PUBLIC "-//W3C//DTD SVG 1.1//EN" "http://www.w3.org/Graphics/SVG/1.1/DTD/svg11.dtd">
<svg version="1.1" id="Layer_1" xmlns="http://www.w3.org/2000/svg" xmlns:xlink="http://www.w3.org/1999/xlink" x="0px" y="0px"
	 width="107.499px" height="115.169px" viewBox="0 0 107.499 115.169" enable-background="new 0 0 107.499 115.169"
	 xml:space="preserve">
<g>
	<circle opacity="0.75" fill="#733700" cx="53.75" cy="53.749" r="53.75"/>
	<g>
		<g>
			<path fill="#D67B18" d="M34.957,30.037c-1.684-1.225-5.006-4.684-4.623-6.98c0.076-0.383,0.229-0.383,0.152-0.919
				c0-0.383-0.459-0.919-0.535-1.378c-0.076-0.689-0.535-2.91,0.383-2.68c0.229-0.689,0.459-3.293,1.302-3.14
				c0.306-0.536,0.46-3.905,0.765-4.364c0.154,0.076,0.383,2.909,0.537,2.986c0.613-0.92,1.148-3.906,1.838-4.595
				c0.459-0.536,1.072-2.298,1.76-1.148c1.227-0.995,2.299-1.838,3.523-2.833c0.076,0.152,0.23,0.229,0.307,0.383
				c1.455-1.226,2.832-1.148,4.518-1.532c1.531-0.459,2.604-1.378,4.287-1.302c1.531,0.077,2.91-0.918,4.519-0.995
				c1.072-0.153,2.258,0.345,3.33,0.574c0.995,0.229,0.958,0.264,1.952,0.417c0.92,0.153,2.183,0.234,3.102,0.617
				c0.536,0.229,2.336,1.378,2.336,1.99c0.459,0,0.92,0.689,1.302,0.996c-0.077,0.076,0.345-0.881,0.269-0.805
				c0.459,0.307,2.412,0.574,2.182,1.264c2.373,1.378,3.445,2.297,4.135,4.824c0.153,0.383,0.077,0.996,0.23,1.379
				c0.229,0.459,0.689,0.611,0.918,1.148c0.23,0.535,0,0.842,0.307,1.378c0.383,0.536,0.996,0.229,1.072,1.071
				c0,0.46,1.34,2.757,1.263,3.293c-0.153,0.459-0.58,4.76-0.656,5.22c0,0.612-1.22,2.17-1.296,2.706
				c-0.076,0.688-1.033,0.642-1.033,1.254c0.076,0.766,0.152-0.689,0,0c-0.154,0.46-1.265,0.086-1.34,0.545
				c-0.154,0.536-0.537,0.613-0.766,1.072c-0.23,0.536-0.076,0.995-0.154,1.531c-0.229,1.148-0.766,2.297-1.072,3.445
				c-0.229,0.92,0.23,2.604-1.071,2.681c0.919-6.739,0.767-14.013-4.901-18.684c-6.661-5.437-17.229-4.71-23.2,1.838
				c-1.339,1.468-2.405,4.252-4.013,5.554c-1.377,1.148,1.229,9.986,0.168,8.775C35.783,34.521,34.957,30.037,34.957,30.037z"/>
		</g>
		<path fill="#F4D1BD" d="M68.881,99.345l2.303-13.587l0.971-12.44c0,0,9.213,8.469,10.922,5.57
			c4.922-8.351-3.204-42.192-3.553-44.832c-0.201-1.524-0.382-4.255-2.376-5.63c-3.948-2.726-16.044-2.33-8.399,0
			c5.086,1.549,11.44,38.271,10.418,37.549c-1.135-0.801-0.564-0.395-1.131-1.59c-0.744-1.57-2.341-4.433-3.282-5.809
			c-1.077-1.572-3.739-4.797-5.25-5.549c-1.812-0.905-9.44-0.766-9.44-0.766s3.716-4.188,4.787-5.518
			c1.707-2.134,4.623-7.067,4.784-9.664c0.192-3.186-0.139-8.362-1.534-11.229c-1.211-2.489-3.806-5.679-6.464-7.252
			c-3.317-1.963-5.783-2.607-10.12-2.573c-3.729,0.029-9.316,2.679-12.763,6.891c-2.707,3.308-1.993,11.444-1.058,15.614
			c0.796,3.595,0.512,6.712,4.855,10.029c1.558,1.189,7.303,4.214,7.303,4.214s-10.121,1.999-12.386,5.05
			c-1.848,2.495-4.884,11.05-5.911,14.931c-1.094,4.128-2.407,12.704-2.223,16.97c0.183,4.267,0.969,7.551,0.602,11.25
			c-0.179,1.906,1.862,12.598,3.063,14.084c1.023,1.268,1.847-8.813,3-9.967c1.962-1.963-0.583-2.617-0.583-2.617l5.166-29.72
			l-1.166,29.72"/>
		<path fill="#98B1B7" d="M71.402,53.471c-3.998-2.195-10.961-1.604-10.961-1.604s0.35,5.534-3.785,5.801
			c-4.133,0.267-7.011-4.856-7.41-5.124c-0.4-0.267-9.297,1.743-13.109,5.424c-2.525,2.439-5.113,13.217-6.201,20.118l9.436,2.671
			l0.545-6.115c0,0-0.489,27.889,0.084,30.834c0.584,3,31.251,2.34,32.499-1.339c3.076-9.069,0.877-29.899,0.877-29.899l2.009,2.483
			l5.064-10.806C79.389,61.104,73.93,54.858,71.402,53.471z"/>
		<g>
			<path fill="#9E005D" stroke="#D4145A" stroke-width="0.5" stroke-miterlimit="10" d="M44.666,28.634l5.818-1.561
				c0,0-1.012,2.065,1.355,2.769c2.367,0.704-3.013,3.898-3.013,3.898L44.666,28.634z"/>
			<circle fill="#820254" stroke="#D4145A" stroke-miterlimit="10" cx="40.12" cy="36.59" r="9.163"/>
			<path fill="#9E005D" stroke="#D4145A" stroke-width="0.5" stroke-miterlimit="10" d="M60.396,28.634l-5.819-1.561
				c0,0,1.013,2.065-1.354,2.769c-2.367,0.704,3.012,3.898,3.012,3.898L60.396,28.634z"/>
			<circle fill="#9E005D" stroke="#D4145A" stroke-width="0.5" stroke-miterlimit="10" cx="52.476" cy="27.643" r="2.2"/>
			<circle fill="#820254" stroke="#D4145A" stroke-miterlimit="10" cx="63.985" cy="36.59" r="9.163"/>
			<g>
				<g>
					<path fill="#E8BFC9" d="M38.317,29.996c-2.877,0.517-4.195,3.211-4.181,5.945c0.019,3.314,2.41,6.189,5.44,7.207
						c0.852,0.286,2.273-0.939,1.107-1.33c-2.142-0.719-3.379-2.142-4.188-4.195c-0.815-2.068-0.542-5.772,2.187-6.262
						C39.913,31.139,39.518,29.78,38.317,29.996L38.317,29.996z"/>
				</g>
			</g>
			<g>
				<g>
					<path fill="#E8BFC9" d="M62.538,30.297c-6.993,1.256-4.924,10.695,0.668,12.572c0.454,0.152,2.187-0.57,1.58-0.773
						c-2.246-0.754-3.567-2.298-4.425-4.474c-0.69-1.75-0.705-6.108,1.831-6.563C62.979,30.917,63.893,30.054,62.538,30.297
						L62.538,30.297z"/>
				</g>
			</g>
		</g>
	</g>
</g>
</svg>
