<?xml version="1.0" encoding="utf-8"?>
<!-- Generator: Adobe Illustrator 15.1.0, SVG Export Plug-In . SVG Version: 6.00 Build 0)  -->
<!DOCTYPE svg PUBLIC "-//W3C//DTD SVG 1.1//EN" "http://www.w3.org/Graphics/SVG/1.1/DTD/svg11.dtd">
<svg version="1.1" id="Layer_1" xmlns="http://www.w3.org/2000/svg" xmlns:xlink="http://www.w3.org/1999/xlink" x="0px" y="0px"
	 width="73.016px" height="39.359px" viewBox="0 0 73.016 39.359" enable-background="new 0 0 73.016 39.359" xml:space="preserve">
<g>
	<g>
		<path fill="#CCCCCC" d="M9.525,37.886c-0.094-0.79,0.083-4.324,0.193-5.66c0.141-1.721,0.74-6.99,0.74-6.99
			s-5.563-1.065-6.05-2.281c-0.519-1.302,0-5.607,0-5.607s-0.809-2.301-0.912-3.236c-0.063-0.58-0.336-0.075,0.095-0.469
			c0.494-0.453,0.784-0.127,0.784-0.127L5.6,15.412l2.159,4.373c0,0,1.621-2.492,2.208-2.785c0.707-0.352,3.67-0.297,3.67-0.297
			s-1.552-0.66-1.966-1.178c-0.667-0.828-1.771-2.6-1.833-3.609c-0.076-1.238,0.503-4.343,1.047-5.457
			c0.472-0.968,1.295-1.624,1.972-2.059c0.864-0.558,3.087-1.701,4.056-1.489c1.112,0.245,2.92,2.196,3.646,3.548
			c0.805,1.498,0.803,2.592,0.633,4.973c-0.102,1.429-1.13,3.165-2.568,4.307c-0.598,0.473-2.009,1.098-2.009,1.098
			s4.93,0.844,5.811,2.031c0.72,0.969,1.897,4.295,2.298,5.805c0.425,1.604,1.006,4.887,1.12,6.543
			c0.1,1.441-0.303,4.289-0.595,5.705c-0.202,0.967-0.367,1.738-0.836,2.316c-0.396,0.492-1.636-3.345-2.083-3.792
			c-0.764-0.764,0.636-1.655,0.636-1.655l-2.381-9.117c0,0,0.042,9.91,0.05,13.215"/>
		<g>
			<path fill="#CCCCCC" d="M9.347,8.144C8.8,7.748,8.33,7.722,8.453,6.979c0.025-0.124,0.075-0.124,0.05-0.298
				c0-0.124-0.149-0.297-0.173-0.446C8.304,6.011,8.156,5.292,8.453,5.367C8.528,5.144,8.602,4.3,8.875,4.349
				c0.1-0.174,0.148-1.265,0.248-1.413C9.172,2.96,9.247,3.878,9.296,3.904c0.199-0.298,0.372-1.266,0.597-1.488
				c0.147-0.174,0.348-0.744,0.57-0.373c0.396-0.322,0.744-0.596,1.142-0.918c0.024,0.051,0.074,0.075,0.099,0.124
				c0.471-0.396,0.917-0.372,1.463-0.495c0.496-0.148,0.844-0.447,1.391-0.422c0.496,0.025,0.941-0.299,1.463-0.322
				c0.347-0.05,0.73,0.111,1.078,0.186c0.322,0.074,0.311,0.086,0.632,0.135c0.298,0.05,0.709,0.076,1.005,0.2
				c0.174,0.075,0.758,0.446,0.758,0.646c0.148,0,0.298,0.223,0.42,0.322C19.889,1.522,20.025,1.211,20,1.236
				c0.148,0.1,0.781,0.187,0.707,0.41c0.769,0.446,1.116,0.744,1.34,1.563c0.051,0.125,0.025,0.322,0.074,0.447
				c0.074,0.148,0.223,0.197,0.297,0.371c0.076,0.174,0,0.273,0.1,0.447c0.124,0.174,0.323,0.074,0.349,0.347
				c0,0.148,0.433,0.893,0.407,1.066c-0.049,0.149-0.188,1.542-0.213,1.69c0,0.199-0.395,0.703-0.419,0.877
				c-0.024,0.223-0.334,0.208-0.334,0.406c0.024,0.248,0.048-0.223,0,0c-0.05,0.149-0.41,0.027-0.435,0.178
				c-0.05,0.173-0.174,0.197-0.249,0.347c-0.074,0.173-0.023,0.323-0.05,0.497c-0.074,0.371-0.247,0.743-0.348,1.115
				c-0.073,0.297,0.076,0.843-0.346,0.868c0.298-2.183,0.248-4.54-1.588-6.053c-2.158-1.761-5.581-1.524-7.516,0.595
				c-0.434,0.477-0.447,1.415-0.968,1.836c-0.446,0.372-1.017,0.1-1.488-0.124"/>
		</g>
		<path fill="#CCCCCC" d="M9.222,17.571c0.714-0.55,3.411-1.153,3.411-1.153s0.539,2.059,2.077,2.157
			c1.538,0.101,1.756-1.64,1.903-1.739c0.149-0.1,4.313,0.482,5.73,1.852c0.939,0.907,2.297,4.814,2.701,7.383l-3.939,1.082
			l-0.521-1.777l0.049,13.313H9.525c-0.204-6,0.934-13.051,0.934-13.051c-0.965-0.1-3.181-0.984-3.181-0.984l0.48-4.767
			C7.759,19.885,8.696,17.976,9.222,17.571z"/>
		<g>
			<g>
				<g>
					<path fill="#FFFFFF" d="M5.989,8.453c0.115-0.391,0.206-1.107,0.722-0.886c0.443,0.19,0.855,0.456,1.297,0.653
						c0.872,0.389,2.494,0.4,1.668,1.724c-0.05,0.08,0.399,0.049,0.479-0.077c0.306-0.49,0.458-1.035-0.172-1.318
						C9.17,8.183,8.332,8.018,7.534,7.587C6.421,6.986,5.867,7.324,5.511,8.53C5.474,8.655,5.95,8.587,5.989,8.453L5.989,8.453z"/>
				</g>
			</g>
			<g>
				<g>
					<path fill="#FFFFFF" d="M10.063,10.065c1.272,0.595,2.733,1.014,3.615,2.175c1.173,1.546-0.112,4.606-0.922,6.03
						c-0.132,0.233,0.359,0.23,0.461,0.051c0.944-1.661,1.793-4.051,1.098-5.936c-0.549-1.489-2.699-2.045-3.972-2.64
						C10.148,9.655,9.786,9.936,10.063,10.065L10.063,10.065z"/>
				</g>
			</g>
			<g>
				<g>
					<path fill="#FFFFFF" d="M5.699,7.831C3.959,7.064,2.48,7.591,1.238,8.966C1.043,9.182,1.513,9.188,1.629,9.06
						c1.054-1.167,2.207-1.638,3.688-0.985C5.471,8.143,5.91,7.924,5.699,7.831L5.699,7.831z"/>
				</g>
			</g>
			<g>
				<path fill="#FFFFFF" d="M5.898,8.058C7.015,8.58,8.745,9.292,9.861,9.664"/>
				<g>
					<path fill="#FFFFFF" d="M5.709,8.187c1.307,0.605,2.644,1.162,4.008,1.625c0.181,0.062,0.569-0.201,0.287-0.296
						C8.671,9.063,7.365,8.52,6.087,7.929C5.92,7.852,5.486,8.083,5.709,8.187L5.709,8.187z"/>
				</g>
			</g>
			<g>
				<path fill="#FFFFFF" d="M12.819,18.389c0.521-2.083,1.265-4.614-0.372-6.325c-1.787-1.786-5.358-2.828-7.666-3.572
					c-2.529-0.893-4.092,0.373-4.688,2.977c-0.67,3.126,2.381,4.094,4.763,5.135c1.861,0.894,6.725,4.653,7.99,1.678"/>
				<g>
					<path fill="#FFFFFF" d="M13.057,18.344c0.48-1.911,1.368-4.796-0.381-6.36c-1.821-1.628-4.156-2.447-6.45-3.183
						c-3.131-1.004-5.379-0.882-6.369,2.712c-0.558,2.022,0.935,3.309,2.511,4.165c1.715,0.932,3.493,1.735,5.21,2.68
						c1.679,0.924,4.32,2.031,5.506-0.122c0.028-0.051-0.41-0.028-0.475,0.09c-1.383,2.509-5.724-0.808-7.207-1.639
						c-2.125-1.19-5.015-1.637-5.158-4.599c-0.11-2.276,2.053-4.16,4.337-3.506c1.596,0.457,3.171,1.029,4.695,1.686
						c3.956,1.705,4.281,4.284,3.306,8.167C12.56,18.522,13.028,18.458,13.057,18.344L13.057,18.344z"/>
				</g>
			</g>
			<g>
				<path fill="#CCCCCC" d="M10.309,12.669c-1.477,0.287-2.422,3.971-0.267,4.037C11.821,16.871,12.884,12.195,10.309,12.669"/>
			</g>
			<g>
				<path fill="#CCCCCC" d="M2.921,9.558c-1.712-0.126-2.907,3.566-0.241,3.104C5.283,12.083,3.383,8.988,2.921,9.558"/>
			</g>
			<g>
				<path fill="#CCCCCC" d="M5.675,11.99c0.669,0.223,1.414,0.521,1.935,0.893C7.313,13.404,7.089,14,6.792,14.594
					c-0.817-1.265-2.977-0.894-1.267-2.679"/>
			</g>
		</g>
		<path fill="#CCCCCC" d="M4.023,21.664c0-2.068-2.611-5.648-2.094-7.069c0.202-0.554,1.276-0.787,1.515-1.806
			c0.242-1.02,1.637,0.706,2.065,1.465c0.43,0.757,1.229,2.653,1.485,3.771s0.585,2.404,0.283,3.044
			c-0.3,0.641-2.396,2.386-2.396,2.386S4.023,23.202,4.023,21.664z"/>
	</g>
	<g>
		<path fill="#CCCCCC" d="M30.457,37.886c0.053-1.339-0.902-6.969-0.902-6.969l-0.378-4.838c0,0-1.899,1.535-2.194,2.504
			c-0.259,0.85,0.497,3.752,0.699,4.107c0.973,1.701,0.254,3.356-0.08,3.465c-1.213,0.396-2.557-1.051-2.877-1.209
			c-0.223-0.109,0.162-1.325,0.484-2.211c0.279-0.768-1.089-3.664-0.91-4.39c0.222-0.916,1.531-3.275,1.673-3.743
			c0.153-0.504,0.7-1.531,0.921-1.996c0.289-0.611,0.908-1.723,1.275-2.258c0.42-0.613,1.15-1.762,2.039-2.158
			c0.72-0.322,3.933-0.447,3.933-0.447s-1.348-0.799-1.899-1.438c-0.403-0.469-1.693-2.978-1.756-3.988
			c-0.077-1.237-0.274-3.579,0.27-4.693c0.471-0.969,1.48-2.208,2.513-2.82c1.29-0.764,2.249-1.014,3.935-1
			c1.452,0.011,3.621,1.041,4.963,2.678c1.051,1.287,1.007,4.699,0.644,6.322c-0.313,1.396-1.05,2.766-2.489,3.906
			c-0.597,0.474-2.313,1.298-2.313,1.298s3.777,0.862,4.658,2.048c0.72,0.971,1.898,4.297,2.298,5.806
			c0.427,1.604,0.386,4.709,0.5,6.364c0.1,1.441-0.04,2.883,0.1,4.32c0.071,0.741,0.716,2.154,0.247,2.732
			c-0.396,0.492-1.548-1.43-1.995-1.877c-0.764-0.762-1.539-1.186-1.154-2.307c0.187-0.541,0.247-0.339,0.224-1.525
			c-0.056-2.883-0.857-4.873-0.966-5.203c-0.485-1.476-1.095-2.505-1.095-2.505s0.023,8.72,0.03,12.024"/>
		<g>
			<path fill="#CCCCCC" d="M29.55,8.902c-0.197-0.152-0.451-0.246-0.62-0.461c0.225-0.092,0.678-0.153,0.762-0.43
				c0.086-0.246-0.281-0.738-0.396-0.953c-0.452-0.707-0.877-1.69-1.669-0.984c0.057-0.521,0.765-0.706,1.132-0.891
				c-0.284-0.123-0.962-0.185-0.734-0.676c0.169-0.338,0.791-0.308,1.074-0.338c-0.142-0.369-0.169-0.646-0.51-0.892
				c0.198-0.093,0.48-0.123,0.707-0.123c-0.058,0.03-0.113,0.03-0.17,0.03c0.057-0.122,0.142-0.276,0.254-0.368
				c-0.45-0.215-0.142-0.492,0.142-0.492c0.227,0,0.312,0.185,0.538,0.093c0.113-0.062,0.17-0.308,0.31-0.369
				c0.228-0.092,0.482,0.123,0.651,0c0.284-0.215,0.028-0.615-0.226-0.676c0.226-0.186,0.679-0.186,0.961-0.186
				c0.367,0,0.848,0.309,1.131,0.277c0.48-0.031,0.849-0.983,1.472-0.399c-0.114-0.646,0.48-0.153,0.706-0.123
				c0.396,0.031,0.68-0.185,1.074,0.062c0.452,0.276,1.217,1.168,1.271,1.752c-0.14-0.83,1.387-0.891,1.896-0.983
				c-0.028,0.093-0.056,0.245-0.085,0.308c0.312-0.031,0.537-0.063,0.85-0.031c0.311,0.031,0.621,0.031,0.933,0.031
				c0.34,0.03,0.31,0.122,0.48,0.215c0.282,0.154,0.65,0.492,0.933,0.614c0.228,0.093,1.273,0,0.791,0.554
				c0.199,0.123,0.736,0.184,0.85,0.43c0.057,0.123-0.17,0.186-0.142,0.277s0.113,0.153,0.113,0.246
				c0.056,0.276,0.311,0.368,0.368,0.553c0.056,0.153,0.027,0.399,0.084,0.522c0.227,0.431,0.734,0.615,0.904,1.106
				c0.058,0.185-0.056,0.338-0.027,0.492c0.085,0.522,0.396,0.983,0.451,1.506c-0.424-0.123-0.338,0.584-0.536,0.799
				c-0.028-0.03-0.085-0.03-0.142-0.063c-0.169,0.186-0.254,0.432-0.339,0.678c-0.029-0.031-0.058-0.063-0.085-0.063
				c-0.227,0.707-0.283,1.599-0.905,0.769c-0.085,0.185-0.141,0.4-0.226,0.554c-0.029-0.031-0.085-0.062-0.114-0.092
				c-0.112,0.246-0.197,0.584-0.509,0.368c-0.227,0.399-0.564,0.738-0.621,1.229c-0.028,0.492,0.057,1.076,0.084,1.567
				c0.027,1.383,0.228,2.675,0.425,4.026c0.085,0.646,0.142,1.26,0.112,1.906c-0.31-0.523-0.564-1.107-0.848-1.629
				c-0.113,0.246-0.057,0.584-0.057,0.86c-0.197-0.246-0.48-0.8-0.65-0.216c-0.029-0.061-0.17-0.153-0.226-0.246
				c-0.114,0.093-0.228,0.216-0.312,0.369c-0.057,0-0.057-0.061-0.085-0.092c-0.028,0.062-0.085,0.154-0.085,0.246
				c-0.027-0.031-0.027-0.092-0.057-0.123c-0.227,0.491-0.339,0.031-0.564-0.123c-0.114,0.338-0.341,0.307-0.51,0
				c-0.028,0.062-0.143,0.092-0.17,0.154c-0.405-0.306-0.688-1.78-0.688-1.78s0.678-0.405,1.061-0.617
				c0.438-0.243,1.258-0.748,1.789-1.637c0.722-1.21,0.751-2.544,0.807-3.958c0.057-1.598,0.313-2.766-0.594-4.211
				c-0.877-1.383-2.12-1.506-3.449-2.027c-1.301-0.554-2.488,0.398-3.762-0.031c-0.141-0.031-0.254-0.123-0.396-0.185
				c-0.17,0.123-0.396,0.245-0.565,0.399c-0.141,0.123-0.254,0.522-0.424,0.584c-0.367,0.093-0.197-0.246-0.452-0.308
				c-0.255-0.03-0.241,0.507-0.468,0.63c-0.395,0.216-0.55-0.369-0.692,0.369c-0.028,0.215-0.14,0.844-0.197,1.06
				c-0.085,0.276-0.438,2.015-0.608,2.229c-0.179,0.273-0.154,0.027-0.325-0.301c-0.099-0.188-0.337-0.402-0.523-0.561"/>
		</g>
		<path fill="#CCCCCC" d="M29.912,18.353c1.487-0.816,4.077-0.596,4.077-0.596s-0.13,2.059,1.409,2.157
			c1.537,0.1,2.607-1.807,2.757-1.906c0.147-0.099,3.457,0.648,4.876,2.019c0.939,0.906,1.902,4.916,2.307,7.484l-3.863,0.967
			l-0.526-1.8l-0.096,12.009H30.457c-0.767-6-1.28-12.207-1.28-12.207l-0.746,0.723l-2.573-2.217
			C26.252,23.197,28.971,18.871,29.912,18.353z"/>
		<g>
			<g>
				<g>
					<path fill="#FFFFFF" d="M25.408,32.917c-0.942,3.207,0.422,2.74,3.673,3.115c1.379,0.159,1.264-0.801,1.379-1.909
						c0.132-1.286-0.559-1.281-1.672-1.388c-1.219-0.158-3.235-0.681-3.354,0"/>
				</g>
				<g>
					<path fill="#FFFFFF" d="M26.256,32.56c-0.025-0.307,0.053-0.492,0.358-0.438c0.237,0.054,0.438,0.054,0.345,0.345"/>
				</g>
				<g>
					<path fill="#FFFFFF" d="M27.277,32.519c0.012-0.344,0.012-0.318,0.344-0.252c0.252,0.053,0.319,0.014,0.305,0.293"/>
				</g>
				<g>
					<path fill="#FFFFFF" d="M28.298,32.599c-0.026-0.305,0.118-0.253,0.358-0.213c0.225,0.04,0.357,0.04,0.332,0.305"/>
				</g>
				<g>
					<path fill="#FFFFFF" d="M29.318,32.771c0.015-0.238,0.053-0.252,0.279-0.172c0.145,0.053,0.304,0.119,0.464,0.145
						c0,0.053,0,0.134-0.026,0.174"/>
				</g>
				<g>
					<path fill="#CCCCCC" d="M25.833,34.283c-0.014-0.225-0.081-0.61,0.119-0.796c0.198-0.186,0.583-0.065,0.808-0.026
						c0.411,0.066,0.81,0.133,1.233,0.146c0.317,0,0.663-0.052,0.98,0.026c0.425,0.094,0.822,0.743,0.397,1.088
						c-0.252,0.199-0.677,0.133-0.967,0.106c-0.464-0.054-0.928-0.134-1.393-0.173c-0.623-0.053-1.207,0.026-1.192-0.742"/>
				</g>
				<g>
					<path fill="#FFFFFF" d="M28.67,34.058c-0.159-0.08-0.359-0.16-0.466,0c-0.078,0.131-0.026,0.251,0.094,0.317
						c0.372,0.238,0.544-0.331,0.238-0.317"/>
				</g>
				<g>
					<path fill="#FFFFFF" d="M26.76,33.805c-0.398-0.106-0.518,0.331-0.133,0.411c0.438,0.105,0.266-0.557-0.04-0.385"/>
				</g>
			</g>
			<g>
				<g>
					<path fill="#FFFFFF" d="M30.309,15.132c0.11,3.201,1.492,6.106,1.649,9.309c0.148,3.028-1.848,5.587-2.044,8.551
						c-0.017,0.256,0.475,0.189,0.49-0.035c0.196-2.958,1.878-5.526,2.044-8.55c0.174-3.165-1.54-6.141-1.648-9.309
						C30.79,14.839,30.301,14.91,30.309,15.132L30.309,15.132z"/>
				</g>
			</g>
			<g>
				<g>
					<path fill="#FFFFFF" d="M42.865,15.179c-0.004,5.979-6.443,7.31-10.764,9.282c-0.29,0.133,0.165,0.111,0.277,0.061
						c4.379-2,10.966-3.342,10.969-9.472C43.348,14.975,42.865,15.043,42.865,15.179L42.865,15.179z"/>
				</g>
			</g>
			<path fill="#FFFFFF" d="M31.631,9.319v5.786l-0.227,0.482l-0.271,0.277l-1.517,0.13l-0.346-0.241l-0.562-0.408l-0.227-0.334
				l-0.491-0.129l-0.802-0.965l-0.224-2.781l0.377-0.408l-0.088-1.854l1.203-0.705L28.08,7.816l-0.002-0.461l0.179-0.418l0.559-0.25
				h0.356l0.824-1.133c0,0,1.814-3.697,6.961-3.697c4.043,0,6.227,1.699,6.962,3.554l0.951,1.296c0,0,0.795,0.284,0.929,0.513
				c0.069,0.114,0,0.539,0,0.539L45.458,8.15l1.173,0.687v1.817v0.444v2.671l-0.265,0.557l-0.41,0.444l-0.517,0.186l-0.227,0.445
				l-0.346,0.353l-0.329-0.043l-0.175-0.023h-1.425l-0.224-0.254l-0.03-0.165l-0.054-0.053V9.429l0.021,0.199l0.153,0.059h0.134
				l1.338-0.443l0.087-0.038l0.514-0.046l0.49,0.544l0.066,0.159l0.424-0.03l0.021-0.544l-0.611-0.532l-0.682-0.585l-0.01-0.17
				l0.055-0.278V7.316l-0.066-0.223l-0.223-0.26c0,0-2.941-3.227-7.118-3.115c-3.58,0.095-4.761,0.63-7.435,3.133l0.225,0.706
				L29.683,8.13l-0.428,0.104l-1.128,0.881l-0.046,0.723l0.378,0.131l0.424-0.539l0.266-0.371l0.491-0.055l0.179-0.223l1.158,0.056
				l0.316,0.167L31.631,9.319z"/>
		</g>
	</g>
	<g>
		<g>
			<path fill="#CCCCCC" d="M49.275,26.253c0,0-0.543,8.158-1.065,11.633h12.833l0.071-0.744c0.169-1.329,0.048-2.802,0.074-4.168
				c0.021-1.061-0.063-4.224-0.063-4.224s3.118-1.782,3.759-2.176c1.537-0.942,4.813-6.3,4.813-6.3s2.516-3.792,3.176-4.465
				c0.388-0.398-0.082-4.366-0.597-3.771c-0.191,0.223,0.155,0.398-0.099,1.34c-0.393,1.454-2.806-0.241-2.282,1.216
				c0.225,0.626-0.942,3.37-3.474,5.581c-0.786,0.688-3.076,2.828-3.076,2.828s-1.634-3.479-2.22-3.771
				c-0.706-0.353-4.079-0.298-4.079-0.298s1.766-1.152,2.183-1.67c0.665-0.829,1.884-3.223,1.946-4.234
				c0.076-1.236-0.053-3.25-0.596-4.365c-0.471-0.967-1.48-2.207-2.513-2.818c-1.29-0.764-2.249-1.015-3.937-1.002
				c-1.449,0.012-3.622,1.042-4.961,2.68c-1.052,1.286-1.726,4.729-1.363,6.35c0.312,1.398,1.359,3.018,2.914,3.994
				c1.066,0.67,2.237,1.086,2.237,1.086s-3.986,0.927-4.866,2.113c-0.719,0.971,2.288,8.223,2.901,8.931
				c1.089,1.253,5.174,0.806,6.624,0c2.678-1.488,3.46-5.247,3.46-5.247"/>
			<g>
				<g>
					<path fill="#FFFFFF" d="M72.174,9.989c0,0,0.036,1.005,0.217,2.952c0.109,1.549,0.378,3.09,0.4,4.613
						c-0.897-0.232-1.969-1.703-2.224-1.979c-0.105-0.116-0.198-0.858-0.253-1.196c-0.17-1.661-0.257-4.857-0.137-6.082
						c0.023-0.23,1.725,1.414,1.931,1.637"/>
					<g>
						<path fill="#FFFFFF" d="M71.933,10.053c0.103,2.53,0.526,5.037,0.617,7.565c0.146-0.055,0.292-0.11,0.438-0.166
							c-2.437-0.999-2.488-3.291-2.584-5.538c-0.029-0.711,0.294-3.159-0.262-3.472c0.646,0.365,1.225,1.048,1.74,1.577
							c0.097,0.099,0.547-0.077,0.453-0.173c-0.438-0.449-1.46-1.855-2.182-1.64c-0.074,0.022-0.21,0.06-0.217,0.154
							c-0.231,3.034-0.819,7.87,2.658,9.294c0.098,0.04,0.442-0.024,0.438-0.166c-0.091-2.529-0.515-5.036-0.617-7.565
							C72.411,9.816,71.926,9.901,71.933,10.053L71.933,10.053z"/>
					</g>
				</g>
				<g>
					<g>
						<path fill="#E6E6E6" d="M71.103,15.547c-0.479,0.252-0.18,0.949,0.327,0.832c0.588-0.136,0.326-0.902-0.211-0.844
							c-0.273,0.029-0.369,0.4-0.041,0.364c0.055,0.097,0.138,0.134,0.25,0.112c-0.053-0.047-0.089-0.103-0.108-0.167
							C71.61,15.689,71.349,15.417,71.103,15.547L71.103,15.547z"/>
					</g>
				</g>
				<g>
					<path fill="#FFFFFF" d="M70.605,14.912c-0.057-0.296-0.239-1.881-0.264-3.021c-0.019-0.845-0.081-2.652-0.048-3.347
						c0.396,0.302,0.909,0.978,1.321,1.255c0.396,0.273,0.345,0.719,0.388,1.453c0.031,0.556,0.127,1.234,0.169,1.809
						c0.061,0.871,0.085,1.492,0.169,2.332c0.055,0.539,0.153,1.1,0.245,1.641c-0.329-0.314-0.674-0.684-1.051-1.105
						c-0.156-0.182-0.393-0.385-0.588-0.596c-0.162-0.177-0.237-0.256-0.35-0.432"/>
					<g>
						<path fill="#E6E6E6" d="M70.847,14.847c-0.329-2.081-0.367-4.266-0.312-6.368c-0.155,0.051-0.311,0.103-0.467,0.154
							c0.453,0.409,0.853,0.864,1.321,1.255c0.558,0.465,0.387,1.68,0.452,2.325c0.166,1.634,0.229,3.262,0.503,4.884
							c0.155-0.051,0.312-0.103,0.467-0.154c-0.675-0.67-1.43-1.361-1.988-2.133c-0.085-0.117-0.552,0.041-0.451,0.18
							c0.56,0.771,1.313,1.463,1.988,2.133c0.091,0.09,0.493,0,0.467-0.154c-0.299-1.772-0.368-3.56-0.549-5.345
							c-0.043-0.421,0.099-1.335-0.216-1.676c-0.48-0.519-1.018-1.02-1.543-1.494c-0.106-0.096-0.463-0.001-0.467,0.154
							c-0.057,2.103-0.018,4.288,0.312,6.368C70.387,15.117,70.872,15.006,70.847,14.847L70.847,14.847z"/>
					</g>
				</g>
			</g>
			<path fill="#CCCCCC" d="M48.748,20.472c1.849-1.053,4.21-1.518,4.21-1.518s0.702,1.848,2.24,1.945
				c1.537,0.1,1.699-1.865,1.849-1.965c0.148-0.1,3.56-0.383,4.378,0.434c0.923,0.924,1.388,1.515,1.921,3.467l-0.204,5.061
				l-2.016,1.255c0,0,0.311,6.536-0.083,9.536H48.21c0.638-7,1.065-12.033,1.065-12.033s-0.428-1.365-0.56-1.752
				c-0.104-0.309-0.383-1.335-0.383-1.335C47.958,22.031,47.444,21.218,48.748,20.472z"/>
		</g>
		<path fill="#CCCCCC" d="M62.362,18.536l1.529-3.106c0,0,0.833-1.222,1.538-1.133c0.707,0.089-1.189,1.115-0.463,2.075
			c0.239,0.317-0.101,0.847,0.018,1.311c0.118,0.465,0.075,1.712-0.112,2.195c-0.206,0.536-1.399,1.744-1.898,2.144
			c-0.496,0.398-4.526,5.49-5.06,5.875c-0.595,0.428-1.265,1.061-3.273,0.744c0,0,0.001-2.121,0.334-2.66
			c0.709-1.144,3.418-2.422,4.279-3.35C60.129,21.689,62.362,18.536,62.362,18.536z"/>
		<g>
			<path fill="#CCCCCC" d="M50.136,8.611c1.429,0.661,3.022,1.318,4.616,1.448c1.154,0.094,2.309-0.081,3.402-0.2
				c0.658-0.082,1.9-0.798,2.561-0.879c0.71,2.314,0.521,4.242-0.395,6.458c1.006-2.052,1.234-4.061,0.75-6.136
				c-0.592-2.441-2.084-4.313-4.132-5.126c-2.222-0.854-4.859-0.447-6.803,1.181c-1.701,1.424-2.223,3.709-2.43,6.143
				c-0.062,0.711,0.014,1.984,0.097,2.375c0.225,1.061,0.764,1.874,0.834,2.118c-0.07-0.244-0.139-1.069-0.167-1.442
				c-0.099-1.261-0.104-2.563,0.173-3.824c0.243-1.098,0.834-1.505,1.598-2.074"/>
		</g>
	</g>
	<path fill="#E0BFAA" d="M5.75,23.908"/>
	<path fill="#E0BFAA" d="M7.734,19.803"/>
</g>
</svg>
