<?xml version="1.0" encoding="utf-8"?>
<!-- Generator: Adobe Illustrator 15.1.0, SVG Export Plug-In . SVG Version: 6.00 Build 0)  -->
<!DOCTYPE svg PUBLIC "-//W3C//DTD SVG 1.1//EN" "http://www.w3.org/Graphics/SVG/1.1/DTD/svg11.dtd">
<svg version="1.1" id="Layer_1" xmlns="http://www.w3.org/2000/svg" xmlns:xlink="http://www.w3.org/1999/xlink" x="0px" y="0px"
	 width="55.363px" height="23.299px" viewBox="0 0 55.363 23.299" enable-background="new 0 0 55.363 23.299" xml:space="preserve">
<g>
	<g opacity="0.9" enable-background="new    ">
		<path fill="#838588" d="M42.284,20.061h0.865c0.147,0,0.283,0.014,0.405,0.039c0.123,0.027,0.229,0.068,0.317,0.125
			s0.157,0.129,0.206,0.219c0.049,0.091,0.073,0.199,0.073,0.326c0,0.145-0.042,0.275-0.124,0.393
			c-0.083,0.117-0.212,0.197-0.386,0.242v0.018c0.213,0.032,0.378,0.106,0.496,0.222s0.178,0.273,0.178,0.474
			c0,0.143-0.026,0.267-0.08,0.373c-0.053,0.106-0.128,0.195-0.226,0.266c-0.098,0.071-0.214,0.125-0.349,0.16
			s-0.283,0.053-0.445,0.053h-0.932V20.061z M43.086,21.302c0.248,0,0.428-0.042,0.537-0.128s0.164-0.211,0.164-0.373
			c0-0.16-0.058-0.273-0.173-0.344c-0.116-0.069-0.286-0.104-0.511-0.104h-0.447v0.948H43.086z M43.162,22.677
			c0.252,0,0.446-0.047,0.583-0.14c0.138-0.094,0.207-0.238,0.207-0.438c0-0.18-0.067-0.313-0.202-0.396s-0.33-0.127-0.588-0.127
			h-0.505v1.101H43.162z"/>
		<path fill="#838588" d="M44.816,20.815h0.368v1.316c0,0.204,0.031,0.352,0.095,0.441s0.167,0.135,0.309,0.135
			c0.112,0,0.211-0.028,0.297-0.086s0.181-0.15,0.284-0.277v-1.529h0.363v2.154H46.23l-0.03-0.336h-0.014
			c-0.101,0.117-0.206,0.213-0.317,0.283c-0.11,0.07-0.241,0.106-0.393,0.106c-0.23,0-0.398-0.071-0.503-0.213
			s-0.157-0.352-0.157-0.63V20.815z"/>
		<path fill="#838588" d="M47.259,20.815h0.302l0.031,0.391h0.013c0.074-0.137,0.163-0.244,0.269-0.324
			c0.104-0.08,0.22-0.12,0.344-0.12c0.086,0,0.162,0.015,0.23,0.044l-0.071,0.32c-0.035-0.012-0.067-0.021-0.098-0.027
			c-0.029-0.006-0.066-0.009-0.11-0.009c-0.092,0-0.188,0.037-0.286,0.111c-0.099,0.073-0.186,0.202-0.26,0.386v1.383h-0.363V20.815
			z"/>
		<path fill="#838588" d="M48.594,21.897c0-0.178,0.027-0.336,0.082-0.477s0.127-0.26,0.217-0.357s0.193-0.172,0.309-0.225
			c0.115-0.051,0.234-0.077,0.358-0.077c0.137,0,0.259,0.024,0.366,0.071c0.108,0.047,0.198,0.115,0.271,0.204
			s0.128,0.194,0.166,0.319c0.039,0.124,0.058,0.263,0.058,0.416c0,0.08-0.004,0.146-0.013,0.2h-1.455
			c0.016,0.233,0.087,0.418,0.216,0.554c0.128,0.137,0.296,0.205,0.503,0.205c0.104,0,0.199-0.016,0.286-0.047
			s0.171-0.072,0.25-0.122l0.129,0.239c-0.095,0.059-0.199,0.111-0.314,0.155s-0.247,0.066-0.395,0.066
			c-0.146,0-0.28-0.026-0.406-0.077c-0.126-0.053-0.235-0.126-0.328-0.223c-0.093-0.096-0.166-0.213-0.22-0.352
			C48.621,22.233,48.594,22.075,48.594,21.897z M50.101,21.733c0-0.223-0.046-0.391-0.14-0.508
			c-0.093-0.117-0.224-0.176-0.392-0.176c-0.077,0-0.15,0.016-0.22,0.047s-0.133,0.075-0.188,0.133
			c-0.057,0.059-0.103,0.129-0.14,0.213s-0.062,0.182-0.073,0.291H50.101z"/>
		<path fill="#838588" d="M50.785,22.411c0-0.236,0.105-0.417,0.316-0.543c0.212-0.125,0.548-0.213,1.009-0.264
			c0-0.068-0.007-0.135-0.02-0.199c-0.014-0.065-0.037-0.123-0.071-0.174c-0.034-0.05-0.079-0.09-0.135-0.121
			c-0.057-0.031-0.129-0.047-0.218-0.047c-0.127,0-0.244,0.023-0.353,0.07c-0.107,0.048-0.204,0.102-0.29,0.16l-0.146-0.252
			c0.101-0.066,0.223-0.129,0.368-0.189c0.145-0.061,0.305-0.091,0.479-0.091c0.264,0,0.454,0.081,0.572,0.241
			c0.118,0.162,0.178,0.377,0.178,0.646v1.32h-0.302l-0.031-0.257h-0.009c-0.104,0.086-0.215,0.159-0.335,0.22
			c-0.119,0.061-0.246,0.091-0.379,0.091c-0.184,0-0.335-0.054-0.454-0.159C50.844,22.756,50.785,22.606,50.785,22.411z
			 M51.143,22.384c0,0.124,0.036,0.213,0.109,0.267c0.072,0.053,0.161,0.08,0.268,0.08c0.104,0,0.202-0.025,0.295-0.074
			c0.094-0.049,0.191-0.12,0.295-0.215v-0.599c-0.18,0.024-0.332,0.052-0.456,0.085c-0.125,0.032-0.225,0.07-0.3,0.115
			c-0.075,0.044-0.129,0.095-0.162,0.152C51.16,22.253,51.143,22.317,51.143,22.384z"/>
		<path fill="#838588" d="M53.13,20.815h0.368v1.316c0,0.204,0.031,0.352,0.095,0.441s0.167,0.135,0.309,0.135
			c0.112,0,0.211-0.028,0.297-0.086s0.181-0.15,0.284-0.277v-1.529h0.363v2.154h-0.302l-0.03-0.336H54.5
			c-0.101,0.117-0.206,0.213-0.317,0.283c-0.11,0.07-0.241,0.106-0.393,0.106c-0.23,0-0.398-0.071-0.503-0.213
			s-0.157-0.352-0.157-0.63V20.815z"/>
	</g>
	<path fill="#838588" d="M8.257,8.393c-0.48-0.918-1.236-1.435-2.433-1.435c-1.994,0-3.113,1.715-3.113,4.19
		c0,2.39,1.159,4.188,3.153,4.188c1.157,0,1.874-0.52,2.552-1.676l2.234,1.315c-0.877,1.874-2.473,2.992-4.865,2.992
		C2.314,17.967,0,15.334,0,11.146c0-4.029,2.396-6.822,5.864-6.822c2.512,0,3.988,1.199,4.826,2.912L8.257,8.393L8.257,8.393z"/>
	<path fill="#838588" d="M18.985,13.896h-5.624c0.081,1.395,1.04,1.995,1.995,1.995c0.878,0,1.318-0.279,1.754-0.719l1.558,1.279
		c-0.759,0.959-1.955,1.473-3.312,1.473c-2.671,0-4.346-1.871-4.346-4.786c0-2.829,1.794-4.825,4.107-4.825
		c2.473,0,3.908,2.194,3.908,4.825C19.026,13.499,18.985,13.739,18.985,13.896L18.985,13.896z M14.999,10.228
		c-0.957,0-1.557,0.757-1.637,1.956h3.431C16.713,11.105,16.193,10.228,14.999,10.228L14.999,10.228z"/>
	<path fill="#838588" d="M25.807,17.726V12.74c0-1.635-0.558-2.114-1.553-2.114c-1.001,0-1.598,0.479-1.598,2.074v5.026h-2.433
		V8.512h2.433v0.639c0.439-0.438,1.198-0.837,2.156-0.837c2.352,0,3.431,1.633,3.431,4.227v5.186H25.807L25.807,17.726z"/>
	<path fill="#838588" d="M33.343,17.924c-1.473,0-2.91-0.397-3.866-1.076l0.796-1.832c0.998,0.557,2.035,0.957,3.191,0.957
		c0.959,0,1.316-0.281,1.316-0.761c0-0.438-0.24-0.676-1.438-0.995c-2.193-0.68-3.626-1.198-3.626-3.153
		c0-1.913,1.514-2.749,3.669-2.749c1.154,0,2.434,0.357,3.43,0.917l-0.799,1.915c-0.917-0.48-1.913-0.838-2.674-0.838
		c-1.035,0-1.316,0.238-1.316,0.636c0,0.398,0.201,0.6,1.957,1.159c1.635,0.519,3.109,1.115,3.109,2.95
		C37.095,17.167,35.419,17.924,33.343,17.924L33.343,17.924z"/>
	<path fill="#838588" d="M43.996,17.726v-0.599c-0.4,0.441-1.195,0.797-2.153,0.797c-2.354,0-3.392-1.594-3.392-4.186V8.512h2.433
		V13.5c0,1.672,0.559,2.151,1.556,2.151c0.998,0,1.555-0.478,1.555-2.072V8.512h2.436v9.214H43.996L43.996,17.726z"/>
	<path fill="#838588" d="M51.615,17.924c-1.438,0-2.875-0.397-3.871-1.076l0.8-1.832c0.997,0.557,2.032,0.957,3.23,0.957
		c0.958,0,1.317-0.281,1.317-0.761c0-0.438-0.279-0.676-1.437-0.995c-2.193-0.68-3.669-1.198-3.669-3.153
		c0-1.913,1.555-2.749,3.707-2.749c1.158,0,2.435,0.357,3.393,0.917l-0.76,1.915c-0.918-0.48-1.914-0.838-2.671-0.838
		c-1.079,0-1.356,0.238-1.356,0.636c0,0.398,0.199,0.6,1.993,1.159c1.597,0.519,3.071,1.115,3.071,2.95
		C55.363,17.167,53.688,17.924,51.615,17.924L51.615,17.924z"/>
	<path fill="#838588" d="M16.092,0.996v2.516c0,1.436-0.677,2.193-1.916,2.193c-1.237,0-1.876-0.796-1.876-2.193V0.996h-0.557V0.36
		h1.914v0.635h-0.559v2.595c0,0.917,0.361,1.398,1.078,1.398c0.758,0,1.158-0.481,1.158-1.36V0.996h-0.598V0.36h1.913v0.635H16.092
		L16.092,0.996z"/>
	<path fill="#838588" d="M19.162,5.624V4.989h0.439V3.19c0-0.757-0.238-0.996-0.637-0.996c-0.36,0-0.64,0.2-0.837,0.52v2.275h0.438
		v0.635h-1.675V4.989h0.439V2.276h-0.439V1.676h1.237v0.401c0.237-0.321,0.558-0.52,1.035-0.52c0.799,0,1.236,0.479,1.236,1.553
		v1.878h0.439v0.635H19.162L19.162,5.624z"/>
	<path fill="#838588" d="M22.075,0.996c-0.279,0-0.479-0.237-0.479-0.517c0-0.241,0.2-0.479,0.479-0.479s0.518,0.238,0.518,0.479
		C22.593,0.758,22.354,0.996,22.075,0.996L22.075,0.996z M21.276,5.624V4.989h0.52V2.276h-0.52V1.676h1.277v3.313h0.48v0.635H21.276
		L21.276,5.624z"/>
	<path fill="#838588" d="M25.465,5.505c-0.159,0.119-0.44,0.199-0.716,0.199c-0.519,0-0.88-0.359-0.88-1.076V2.276H23.35V1.676
		h0.519V0.518l0.798-0.398v1.557h0.878v0.599h-0.878v2.272c0,0.397,0.082,0.476,0.358,0.476c0.201,0,0.4-0.078,0.521-0.16
		L25.465,5.505L25.465,5.505z"/>
	<path fill="#838588" d="M29.135,3.911h-2.433c0.039,0.718,0.359,1.114,0.955,1.114c0.44,0,0.721-0.117,1.08-0.396l0.32,0.559
		c-0.44,0.318-0.878,0.517-1.437,0.517c-0.958,0-1.675-0.757-1.675-2.075c0-1.314,0.638-2.069,1.634-2.069
		c1.078,0,1.557,0.916,1.557,1.992C29.135,3.712,29.135,3.83,29.135,3.911L29.135,3.911z M27.539,2.194
		c-0.518,0-0.798,0.4-0.837,1.077h1.675C28.337,2.714,28.136,2.194,27.539,2.194L27.539,2.194z"/>
	<path fill="#838588" d="M32.125,5.624V5.187c-0.239,0.318-0.559,0.517-0.957,0.517c-0.838,0-1.437-0.638-1.437-2.152
		c0-1.358,0.64-1.992,1.397-1.992c0.479,0,0.757,0.238,0.996,0.477V0.639h-0.438V0.042h1.235v4.947h0.402v0.635H32.125L32.125,5.624
		z M32.166,2.714c-0.199-0.2-0.518-0.52-0.879-0.52c-0.518,0-0.797,0.479-0.797,1.356c0,1.078,0.319,1.516,0.838,1.516
		c0.32,0,0.518-0.158,0.838-0.517V2.714L32.166,2.714z"/>
	<path fill="#838588" d="M37.63,5.704c-0.521,0-0.918-0.236-1.158-0.517v0.437h-0.677V3.991h0.638
		c0.199,0.637,0.52,1.036,1.158,1.036c0.597,0,0.879-0.282,0.879-0.798c0-0.481-0.123-0.717-1.078-0.958
		c-1.038-0.317-1.555-0.639-1.555-1.595c0-0.88,0.596-1.436,1.515-1.436c0.599,0,0.915,0.238,1.077,0.517V0.36h0.678v1.597h-0.639
		c-0.082-0.639-0.438-1.039-1.076-1.039c-0.561,0-0.76,0.32-0.76,0.719c0,0.44,0.279,0.678,1.038,0.877
		c1.076,0.317,1.597,0.676,1.597,1.634C39.265,5.187,38.586,5.704,37.63,5.704L37.63,5.704z"/>
	<path fill="#838588" d="M41.818,5.505c-0.159,0.119-0.438,0.199-0.719,0.199c-0.518,0-0.837-0.359-0.837-1.076V2.276h-0.558V1.676
		h0.558V0.518l0.759-0.398v1.557h0.876v0.599h-0.876v2.272c0,0.397,0.119,0.476,0.358,0.476c0.2,0,0.399-0.078,0.518-0.16
		L41.818,5.505L41.818,5.505z"/>
	<path fill="#838588" d="M44.65,5.624V5.187c-0.24,0.281-0.6,0.517-1.078,0.517c-0.678,0-1.275-0.359-1.275-1.314
		c0-0.878,0.639-1.317,1.475-1.317c0.361,0,0.639,0.081,0.879,0.199V2.915c0-0.439-0.279-0.68-0.719-0.68
		c-0.398,0-0.678,0.08-0.996,0.24l-0.279-0.557c0.359-0.241,0.799-0.358,1.317-0.358c0.835,0,1.435,0.435,1.435,1.355v2.074h0.399
		v0.637H44.65V5.624z M44.65,3.869c-0.199-0.078-0.438-0.157-0.879-0.157c-0.439,0-0.717,0.236-0.717,0.637
		c0,0.479,0.199,0.676,0.678,0.676c0.362,0,0.679-0.2,0.92-0.476v-0.68H44.65z"/>
	<path fill="#838588" d="M48.12,5.505c-0.159,0.119-0.44,0.199-0.718,0.199c-0.518,0-0.838-0.359-0.838-1.076V2.276h-0.559V1.676
		h0.559V0.518l0.758-0.398v1.557h0.877v0.599h-0.876v2.272c0,0.397,0.08,0.476,0.358,0.476c0.201,0,0.399-0.078,0.52-0.16
		L48.12,5.505L48.12,5.505z"/>
	<path fill="#838588" d="M51.789,3.911h-2.432c0.08,0.718,0.359,1.114,0.997,1.114c0.438,0,0.679-0.117,1.036-0.396l0.321,0.559
		c-0.401,0.318-0.839,0.517-1.438,0.517c-0.957,0-1.676-0.757-1.676-2.075c0-1.314,0.681-2.069,1.637-2.069
		c1.076,0,1.596,0.916,1.596,1.992C51.83,3.712,51.789,3.83,51.789,3.911L51.789,3.911z M50.195,2.194c-0.52,0-0.758,0.4-0.84,1.077
		h1.677C50.992,2.714,50.792,2.194,50.195,2.194L50.195,2.194z"/>
	<path fill="#838588" d="M53.984,5.665c-0.479,0-0.68-0.121-0.877-0.36v0.319h-0.641V4.39h0.561
		c0.238,0.438,0.479,0.676,0.918,0.676c0.319,0,0.518-0.201,0.518-0.477c0-0.28-0.159-0.441-0.718-0.598
		c-0.958-0.279-1.278-0.599-1.278-1.277c0-0.598,0.44-1.119,1.199-1.119c0.357,0,0.638,0.081,0.838,0.321v-0.24H55.1v1.197h-0.519
		c-0.199-0.439-0.438-0.679-0.837-0.679c-0.358,0-0.519,0.161-0.519,0.438c0,0.24,0.121,0.398,0.719,0.601
		c0.916,0.278,1.275,0.558,1.275,1.316C55.22,5.146,54.742,5.665,53.984,5.665L53.984,5.665z"/>
	<path fill="#838588" d="M36.789,21.598c0,0.818-0.371,1.701-1.1,1.701H1.539C0.81,23.299,0,22.417,0,21.598v-0.1
		c0-0.818,0.81-1.267,1.539-1.267h34.15c0.729,0,1.1,0.448,1.1,1.267V21.598z"/>
</g>
</svg>
