<?xml version="1.0" encoding="utf-8"?>
<!-- Generator: Adobe Illustrator 15.1.0, SVG Export Plug-In . SVG Version: 6.00 Build 0)  -->
<!DOCTYPE svg PUBLIC "-//W3C//DTD SVG 1.1//EN" "http://www.w3.org/Graphics/SVG/1.1/DTD/svg11.dtd">
<svg version="1.1" id="Layer_1" xmlns="http://www.w3.org/2000/svg" xmlns:xlink="http://www.w3.org/1999/xlink" x="0px" y="0px"
	 width="35px" height="26px" viewBox="0 0 35 26" enable-background="new 0 0 35 26" xml:space="preserve">
<path fill="#FFFFFF" d="M35,2.892C35,1.295,33.705,0,32.107,0H2.892C1.295,0,0,1.295,0,2.892v0.217C0,4.705,1.295,6,2.892,6h29.217
	C33.705,6,35,4.705,35,3.108V2.892z M35,12.892C35,11.295,33.705,10,32.107,10H2.892C1.295,10,0,11.295,0,12.892v0.217
	C0,14.705,1.295,16,2.892,16h29.217C33.705,16,35,14.705,35,13.108V12.892z M35,22.893C35,21.295,33.705,20,32.107,20H2.892
	C1.295,20,0,21.295,0,22.893v0.217C0,24.705,1.295,26,2.892,26h29.217C33.705,26,35,24.705,35,23.107V22.893z"/>
</svg>
